<?xml version="1.0" encoding="UTF-8" standalone="no"?><!DOCTYPE svg PUBLIC "-//W3C//DTD SVG 1.1//EN" "http://www.w3.org/Graphics/SVG/1.1/DTD/svg11.dtd"><svg width="100%" height="100%" viewBox="0 0 64 64" version="1.1" xmlns="http://www.w3.org/2000/svg" xmlns:xlink="http://www.w3.org/1999/xlink" xml:space="preserve" xmlns:serif="http://www.serif.com/" style="fill-rule:evenodd;clip-rule:evenodd;stroke-linejoin:round;stroke-miterlimit:2;"><clipPath id="rounded"><rect x="0" y="0" width="64" height="64" rx="14"/></clipPath><g clip-path="url(#rounded)"><rect id="アートボード1" x="0" y="0" width="64" height="64" style="fill:#ed6c00;"/><g id="アートボード11" serif:id="アートボード1"><g><path d="M32.056,13.036c-0.691,-0.257 -1.432,-0.397 -2.203,-0.397c-3.63,0 -6.631,3.111 -6.631,6.949l0,3.192l-0.038,-0.012c-1.502,-0.488 -3.048,-0.454 -4.422,-0.005c-3.646,-1.175 -7.522,0.717 -8.642,4.164c-1.122,3.453 0.909,7.268 4.559,8.454l4.398,1.429c0,-0 -2.747,3.781 -2.747,3.781c-2.256,3.105 -1.656,7.385 1.281,9.519c1.765,1.282 3.999,1.525 5.997,0.839c2.726,0.973 5.985,0.016 7.859,-2.563l0.514,-0.709l0.543,0.748c1.874,2.579 5.132,3.536 7.86,2.563c1.996,0.687 4.231,0.444 5.996,-0.839c2.937,-2.133 3.536,-6.414 1.28,-9.519c0,0 -2.718,-3.741 -2.718,-3.741l4.444,-1.444c3.651,-1.186 5.682,-5.001 4.56,-8.454c-1.12,-3.447 -4.996,-5.339 -8.641,-4.164c-1.372,-0.449 -2.915,-0.483 -4.414,0.003l-0,-3.242c-0,-3.838 -3.002,-6.949 -6.631,-6.949c-0.771,0 -1.513,0.14 -2.204,0.397Zm13.181,12.026c-0.119,-0.005 -0.236,-0.03 -0.346,-0.074c-1.018,-0.4 -2.196,-0.458 -3.337,-0.087l-1.415,0.459c-0.331,0.108 -0.693,0.05 -0.975,-0.154c-0.282,-0.205 -0.448,-0.532 -0.448,-0.88l-0,-4.738c-0,-2.609 -1.988,-4.774 -4.456,-4.774c-0.62,0 -1.211,0.138 -1.748,0.386c-0.289,0.133 -0.623,0.133 -0.912,-0c-0.536,-0.248 -1.127,-0.386 -1.747,-0.386c-2.468,0 -4.456,2.165 -4.456,4.774l-0,4.689c-0,0.348 -0.167,0.675 -0.448,0.88c-0.282,0.204 -0.645,0.262 -0.976,0.154c0,0 -1.46,-0.474 -1.46,-0.475c-1.142,-0.37 -2.319,-0.312 -3.337,0.088c-0.111,0.043 -0.228,0.068 -0.347,0.074l-0.05,0.001c-0.177,0 -0.346,-0.042 -0.495,-0.119l-0.027,-0.006c-0.047,-0.008 -0.093,-0.019 -0.139,-0.034l-0.003,-0l0.001,-0l-0.01,-0.003c-2.482,-0.807 -5.155,0.415 -5.918,2.763c-0.762,2.347 0.682,4.906 3.163,5.713l5.822,1.891c0.331,0.108 0.59,0.367 0.698,0.698c0.107,0.331 0.05,0.694 -0.155,0.975l-3.626,4.992c-1.534,2.111 -1.198,5.031 0.799,6.481c1.268,0.921 2.9,1.018 4.308,0.43c0.275,-0.116 0.586,-0.113 0.859,0.008c1.919,0.848 4.303,0.175 5.651,-1.681l1.394,-1.919c0.205,-0.281 0.532,-0.448 0.88,-0.448c0.348,-0 0.675,0.167 0.88,0.448c-0,0 1.423,1.959 1.423,1.959c1.348,1.856 3.732,2.529 5.651,1.681c0.273,-0.121 0.583,-0.124 0.859,-0.009c1.408,0.589 3.04,0.492 4.308,-0.429c1.996,-1.451 2.333,-4.37 0.799,-6.481l-3.598,-4.953c-0.204,-0.281 -0.262,-0.644 -0.154,-0.975c0.107,-0.331 0.367,-0.59 0.698,-0.698c-0,0 5.867,-1.906 5.867,-1.906c2.482,-0.807 3.926,-3.366 3.164,-5.714c-0.763,-2.347 -3.436,-3.569 -5.917,-2.762l-0.011,0.003l0.001,-0l-0.003,0.001c-0.046,0.014 -0.092,0.025 -0.139,0.033l-0.521,0.125l-0.051,-0.001Z" style="fill:#221815;"/><path d="M49.602,26.971c-1.132,-3.486 -5.055,-5.399 -8.741,-4.202c0,0 -4.311,1.401 -4.311,1.401c-0,0 -0,-4.582 -0,-4.582c-0,-3.875 -3.032,-7.015 -6.697,-7.015c-3.666,0 -6.697,3.14 -6.697,7.015l-0,4.533l-4.358,-1.416c-3.686,-1.197 -7.608,0.716 -8.741,4.202c-1.133,3.486 0.916,7.339 4.602,8.537l4.311,1.401c0,-0 -2.693,3.707 -2.693,3.707c-2.278,3.135 -1.67,7.457 1.295,9.611c2.965,2.155 7.263,1.397 9.541,-1.738l2.665,-3.668l2.693,3.707c2.278,3.135 6.576,3.893 9.541,1.739c2.965,-2.154 3.573,-6.477 1.295,-9.612c-0,0 -2.665,-3.667 -2.665,-3.667l4.358,-1.416c3.686,-1.198 5.735,-5.051 4.602,-8.537Zm-2.194,0.713c0.752,2.313 -0.675,4.835 -3.121,5.63c0,-0 -5.867,1.906 -5.867,1.906c-0.352,0.114 -0.627,0.39 -0.741,0.741c-0.114,0.351 -0.053,0.736 0.164,1.034l3.597,4.952c1.512,2.081 1.184,4.96 -0.784,6.389c-1.968,1.43 -4.807,0.853 -6.319,-1.228c0,-0 -3.626,-4.992 -3.626,-4.992c-0.217,-0.298 -0.564,-0.475 -0.933,-0.475c-0.37,-0 -0.717,0.177 -0.934,0.475l-3.597,4.952c-1.512,2.081 -4.351,2.659 -6.319,1.229c-1.968,-1.43 -2.297,-4.308 -0.785,-6.389l3.627,-4.992c0.217,-0.298 0.278,-0.683 0.164,-1.034c-0.114,-0.351 -0.39,-0.627 -0.741,-0.741l-5.821,-1.891c-2.446,-0.795 -3.872,-3.316 -3.121,-5.63c0.752,-2.314 3.388,-3.515 5.834,-2.721c0,0 5.868,1.907 5.868,1.907c0.351,0.114 0.736,0.053 1.034,-0.164c0.299,-0.217 0.476,-0.564 0.476,-0.933l0,-6.121c0,-2.572 1.957,-4.708 4.39,-4.708c2.432,0 4.39,2.136 4.39,4.708l-0,6.17c-0,0.369 0.176,0.716 0.475,0.933c0.299,0.217 0.683,0.278 1.035,0.164l5.821,-1.891c2.446,-0.795 5.082,0.406 5.834,2.72Z" style="fill:#221815;"/></g></g></g></svg>